<svg width="48" height="48" viewBox="0 0 48 48" fill="none" xmlns="http://www.w3.org/2000/svg">
<rect width="48" height="48" rx="24" fill="#437EF7"/>
<path fill-rule="evenodd" clip-rule="evenodd" d="M23.9999 9.3335C15.8997 9.3335 9.33325 15.9 9.33325 24.0002C9.33325 32.1003 15.8997 38.6668 23.9999 38.6668C32.1001 38.6668 38.6666 32.1003 38.6666 24.0002C38.6666 15.9 32.1001 9.3335 23.9999 9.3335ZM30.8408 17.1593C29.2953 15.6138 26.7895 15.6138 25.244 17.1593C24.7233 17.68 24.7233 18.5242 25.2439 19.0449C25.7647 19.5656 26.6089 19.5656 27.1296 19.0449C27.6337 18.5408 28.451 18.5408 28.9552 19.0449C29.4593 19.549 29.4593 20.3664 28.9552 20.8705L25.244 24.5817C24.9509 24.8748 24.5532 24.9983 24.1673 24.9495C23.4367 24.8571 22.7696 25.3744 22.6771 26.1049C22.5847 26.8355 23.102 27.5026 23.8326 27.5951C25.0011 27.7429 26.229 27.3679 27.1296 26.4673L30.8408 22.7561C32.3863 21.2106 32.3863 18.7048 30.8408 17.1593ZM24.1673 20.4053C22.9988 20.2574 21.7709 20.6324 20.8703 21.533L17.1591 25.2442C15.6135 26.7897 15.6135 29.2955 17.1591 30.841C18.7046 32.3865 21.2104 32.3865 22.7559 30.841C23.2766 30.3203 23.2766 29.4761 22.7559 28.9554C22.2352 28.4347 21.391 28.4347 20.8703 28.9554C20.3661 29.4595 19.5488 29.4595 19.0447 28.9554C18.5406 28.4513 18.5406 27.6339 19.0447 27.1298L22.7559 23.4186C23.049 23.1255 23.4466 23.002 23.8326 23.0508C24.5631 23.1433 25.2303 22.626 25.3227 21.8954C25.4151 21.1649 24.8978 20.4977 24.1673 20.4053Z" fill="white"/>
</svg>
