<svg width="112" height="28" viewBox="0 0 112 28" fill="none" xmlns="http://www.w3.org/2000/svg">
<path d="M42.61 8.46981C39.8183 8.46981 37.8055 10.6301 37.8055 14.5167C37.8055 18.4335 39.788 20.5938 42.6808 20.5938C45.2701 20.5938 46.9188 19.0392 46.9694 16.576H42.9842V14.1331H49.9936V16.2025C49.9936 20.6544 46.9289 23.4103 42.6605 23.4103C37.8966 23.4103 34.6599 20.0184 34.6599 14.547C34.6599 8.98465 38.0483 5.66343 42.5695 5.66343C46.3827 5.66343 49.3159 8.02564 49.852 11.4175H46.6659C46.1096 9.58025 44.6936 8.46981 42.61 8.46981ZM52.0975 10.2263H55.142V23.168H52.0975V10.2263ZM53.6248 8.16697C52.6538 8.16697 51.8648 7.44013 51.8648 6.52149C51.8648 5.60286 52.6639 4.85583 53.6349 4.85583C54.6059 4.85583 55.3948 5.61295 55.3948 6.52149C55.3948 7.43004 54.6059 8.16697 53.6349 8.16697H53.6248ZM64.2855 12.5784H61.7266V19.2815C61.7266 20.5131 62.3435 20.7856 63.1123 20.7856C63.1864 20.7856 63.2606 20.7822 63.3348 20.7755C63.4089 20.7688 63.4831 20.7587 63.5573 20.7452C63.6315 20.7318 63.7056 20.7217 63.7798 20.7149C63.854 20.7015 63.9282 20.6847 64.0023 20.6645L64.5182 23.0469C64.3698 23.1007 64.2215 23.1445 64.0731 23.1781C63.9248 23.2118 63.7764 23.242 63.6281 23.269C63.4797 23.2959 63.328 23.3161 63.1729 23.3295C63.0246 23.343 62.8729 23.3531 62.7178 23.3598C60.4319 23.4305 58.6618 22.2292 58.6719 19.7862V12.5885H56.8412V10.2263H58.6719V7.107H61.7266V10.2263H64.2855V12.5784ZM66.6422 5.89561H69.7677V20.5433H77.3637V23.168H66.6422V5.89561ZM78.891 19.5338C78.891 16.6164 81.2882 15.8694 83.7966 15.5968C86.0825 15.3545 87.0029 15.3142 87.0029 14.4359V14.3854C87.0029 13.1135 86.2241 12.3866 84.8081 12.3866C83.3111 12.3866 82.4514 13.1438 82.158 14.0321L79.3057 13.6182C79.9834 11.256 82.067 10.0446 84.7878 10.0446C87.2558 10.0446 90.0474 11.0743 90.0474 14.4965V23.168H87.1142V21.3913H87.013C86.4567 22.4816 85.243 23.4305 83.21 23.4305C80.742 23.4305 78.8809 22.0879 78.891 19.5338ZM84.2113 21.1894C86.0522 21.1894 87.2153 19.9679 87.2052 18.5244V17C86.8107 17.3231 85.2126 17.525 84.4035 17.636C83.0481 17.8278 82.0265 18.3124 82.0265 19.4935C82.0265 20.614 82.9369 21.1894 84.2113 21.1894ZM92.2929 5.89561H95.3373V12.3564H95.4688C95.9341 11.4175 96.8849 10.0446 99.1708 10.0446C102.165 10.0446 104.511 12.3967 104.511 16.7073C104.511 20.9774 102.225 23.4002 99.1809 23.4002C96.9557 23.4002 95.9543 22.0778 95.4688 21.1288H95.2969V23.168H92.2929V5.89561ZM98.3313 20.8967C100.344 20.8967 101.406 19.1099 101.406 16.6972C101.406 14.2845 100.354 12.5482 98.3313 12.5482C96.369 12.5482 95.2868 14.1734 95.2868 16.6972C95.2868 19.2108 96.3791 20.8967 98.3313 20.8967Z" fill="white"/>
<path d="M29.2689 13.547C29.2992 14.1426 29.2284 14.7281 29.0565 15.3035C28.8946 15.8688 28.6418 16.414 28.308 16.8985C27.9742 17.3932 27.5595 17.8273 27.0841 18.1806L27.074 18.1907L22.5325 21.5927L20.2871 23.2886L18.9317 24.3183C18.8508 24.3789 18.7632 24.4226 18.6688 24.4495C18.5744 24.4832 18.4766 24.5 18.3754 24.5C18.2743 24.5 18.1765 24.4832 18.0821 24.4495C17.9877 24.4226 17.9034 24.3789 17.8293 24.3183L16.4638 23.2886L14.2285 21.5927L9.71735 18.2109L9.69712 18.1907L9.67689 18.1806C9.21162 17.8273 8.79692 17.3932 8.46314 16.8985C8.11925 16.414 7.86638 15.8688 7.70455 15.3035C7.54271 14.7281 7.47191 14.1426 7.49214 13.547C7.52248 12.9514 7.64386 12.3659 7.85627 11.8107L7.88661 11.74L10.8502 3.99722C10.8637 3.95684 10.8805 3.91983 10.9008 3.88618C10.921 3.85253 10.9446 3.81888 10.9716 3.78523C10.9985 3.75158 11.0255 3.7213 11.0525 3.69438C11.0862 3.66746 11.1199 3.6439 11.1536 3.62371C11.2548 3.56314 11.3761 3.52276 11.4975 3.50257C11.6189 3.49248 11.7403 3.51267 11.8515 3.55305C11.9729 3.59343 12.0741 3.66409 12.155 3.75495C12.2359 3.8458 12.2966 3.95684 12.3269 4.07798L14.3296 10.2056H22.4314L24.4341 4.07798C24.4745 3.95684 24.5251 3.8458 24.6161 3.75495C24.6971 3.66409 24.7982 3.59343 24.9095 3.55305C25.0308 3.51267 25.1522 3.49248 25.2736 3.50257C25.395 3.52276 25.5062 3.56314 25.6175 3.62371C25.6512 3.6439 25.6816 3.66746 25.7085 3.69438C25.7422 3.7213 25.7726 3.75158 25.7996 3.78523L25.8602 3.88618C25.8805 3.91983 25.9007 3.95684 25.9209 3.99722L28.8845 11.7299L28.9148 11.8107C29.1273 12.3659 29.2486 12.9514 29.2689 13.547Z" fill="white"/>
<path d="M29.2689 13.547C29.2992 14.1426 29.2284 14.7282 29.0665 15.3036C28.8946 15.8689 28.6418 16.414 28.308 16.8985C27.9742 17.3932 27.5595 17.8273 27.0841 18.1806L27.074 18.1907L22.5325 21.5927L18.3855 18.4532L24.8993 13.5269C25.1893 13.3048 25.4927 13.1029 25.8096 12.9212C26.1266 12.7328 26.4536 12.5645 26.7908 12.4165C27.1279 12.2617 27.4718 12.1271 27.8224 12.0127C28.1663 11.8983 28.5204 11.804 28.8845 11.7299L28.9148 11.8107C29.1273 12.3659 29.2486 12.9514 29.2689 13.547Z" fill="#F1F2F4"/>
<path d="M18.3855 18.4532L22.5325 21.5927L20.2871 23.2886L18.9317 24.3183C18.8508 24.3789 18.7632 24.4226 18.6688 24.4495C18.5744 24.4832 18.4766 24.5 18.3754 24.5C18.2743 24.5 18.1765 24.4832 18.0821 24.4495C17.9877 24.4226 17.9034 24.3789 17.8293 24.3183L16.4638 23.2886L14.2285 21.5927L18.3855 18.4532Z" fill="#D0D5DD"/>
<path d="M18.3754 18.4534L14.2285 21.5927L9.71735 18.2109L9.69712 18.1907L9.67689 18.1806C9.21162 17.8273 8.79692 17.3932 8.46314 16.8985C8.11925 16.414 7.86638 15.8688 7.70455 15.3035C7.54271 14.7281 7.47191 14.1426 7.49214 13.547C7.52248 12.9514 7.64386 12.3659 7.85627 11.8107L7.88661 11.74C8.24399 11.8141 8.598 11.9052 8.94864 12.0128C9.29928 12.1273 9.64318 12.2619 9.98033 12.4166C10.3107 12.5647 10.6344 12.7329 10.9513 12.9214C11.2683 13.1098 11.5751 13.3117 11.8718 13.5271L18.3754 18.4534Z" fill="#F1F2F4"/>
</svg>
