<svg width="48" height="48" viewBox="0 0 48 48" fill="none" xmlns="http://www.w3.org/2000/svg">
<rect width="48" height="48" rx="24" fill="#437EF7"/>
<path d="M25.3334 19.8321C27.6337 19.2401 29.3334 17.1519 29.3334 14.6668C29.3334 11.7213 26.9456 9.3335 24.0001 9.3335C21.0546 9.3335 18.6667 11.7213 18.6667 14.6668C18.6667 17.1519 20.3664 19.2401 22.6667 19.8321V22.6668H18.6667C16.4576 22.6668 14.6667 24.4577 14.6667 26.6668V28.1682C12.3664 28.7602 10.6667 30.8484 10.6667 33.3335C10.6667 36.279 13.0546 38.6668 16.0001 38.6668C18.9456 38.6668 21.3334 36.279 21.3334 33.3335C21.3334 30.8484 19.6337 28.7602 17.3334 28.1682V26.6668C17.3334 25.9304 17.9304 25.3335 18.6667 25.3335H29.3334C30.0698 25.3335 30.6667 25.9304 30.6667 26.6668V28.1682C28.3664 28.7602 26.6667 30.8484 26.6667 33.3335C26.6667 36.279 29.0546 38.6668 32.0001 38.6668C34.9456 38.6668 37.3334 36.279 37.3334 33.3335C37.3334 30.8484 35.6337 28.7602 33.3334 28.1682V26.6668C33.3334 24.4577 31.5426 22.6668 29.3334 22.6668H25.3334V19.8321Z" fill="white"/>
</svg>
