<svg width="112" height="28" viewBox="0 0 112 28" fill="none" xmlns="http://www.w3.org/2000/svg">
<path d="M29.9263 4.51921C28.9414 3.84044 27.6561 3.50024 26.0706 3.50024H19.932C19.446 3.50024 19.1774 3.74393 19.1264 4.23084L16.6328 19.9222C16.6069 20.0763 16.6454 20.2172 16.7479 20.3454C16.8498 20.4737 16.9779 20.5376 17.1315 20.5376H20.0472C20.5586 20.5376 20.8397 20.2945 20.8913 19.8069L21.5818 15.5766C21.607 15.3716 21.6969 15.2049 21.8504 15.0765C22.0038 14.9484 22.1957 14.8646 22.4259 14.8262C22.6561 14.7882 22.8731 14.7689 23.0781 14.7689C23.2825 14.7689 23.5254 14.7819 23.8072 14.8074C24.0883 14.8329 24.2675 14.8455 24.3443 14.8455C26.5437 14.8455 28.2702 14.2242 29.5236 12.9803C30.7765 11.737 31.4037 10.0129 31.4037 7.80735C31.4037 6.29465 30.9108 5.19868 29.9263 4.51885V4.51921ZM26.7614 9.23083C26.6331 10.1284 26.301 10.7178 25.7639 10.9999C25.2267 11.2824 24.4594 11.423 23.4621 11.423L22.1959 11.4613L22.8483 7.34607C22.8992 7.06428 23.0653 6.92322 23.3469 6.92322H24.0761C25.0986 6.92322 25.8408 7.07099 26.3012 7.36534C26.7614 7.66041 26.9149 8.28239 26.7614 9.23083Z" fill="white"/>
<path d="M94.7064 3.5H91.8677C91.5856 3.5 91.4195 3.64107 91.3689 3.92332L88.875 19.9226L88.8366 19.9995C88.8366 20.1283 88.8877 20.2495 88.9903 20.365C89.092 20.4802 89.2205 20.5379 89.3738 20.5379H91.9063C92.3914 20.5379 92.6601 20.2948 92.7121 19.8073L95.2056 4.0772V4.03899C95.2055 3.67986 95.0388 3.50047 94.7064 3.50047V3.5Z" fill="white"/>
<path d="M60.4078 9.69283C60.4078 9.56493 60.3565 9.4429 60.2548 9.32782C60.1522 9.21249 60.037 9.15442 59.9095 9.15442H56.9554C56.6734 9.15442 56.4432 9.28326 56.2645 9.53894L52.1979 15.5389L50.5098 9.76994C50.3813 9.36003 50.1003 9.15442 49.6659 9.15442H46.788C46.6598 9.15442 46.5448 9.21226 46.4431 9.32782C46.3405 9.4429 46.2896 9.56516 46.2896 9.69283C46.2896 9.74443 46.539 10.5005 47.0376 11.962C47.5363 13.4239 48.0734 15.0008 48.6489 16.6931C49.2245 18.3851 49.5248 19.283 49.5505 19.3847C47.453 22.2568 46.4047 23.7951 46.4047 23.9999C46.4047 24.3335 46.5707 24.5 46.9035 24.5H49.8576C50.1388 24.5 50.3689 24.3721 50.5483 24.1156L60.3316 9.96191C60.3824 9.91113 60.4078 9.82178 60.4078 9.69271V9.69283Z" fill="white"/>
<path d="M87.9166 9.15442H85.0007C84.6423 9.15442 84.4257 9.57762 84.3488 10.4239C83.683 9.39858 82.4689 8.88522 80.7037 8.88522C78.8622 8.88522 77.2954 9.57762 76.004 10.9622C74.7122 12.3468 74.0667 13.9754 74.0667 15.8469C74.0667 17.3599 74.5078 18.5649 75.39 19.4619C76.2725 20.3599 77.4552 20.8081 78.9393 20.8081C79.6809 20.8081 80.4354 20.6539 81.2027 20.3465C81.9699 20.0389 82.5705 19.6289 83.0061 19.1158C83.0061 19.1416 82.98 19.2566 82.9294 19.4616C82.8777 19.6671 82.8525 19.8214 82.8525 19.9231C82.8525 20.3338 83.0183 20.5384 83.3514 20.5384H85.9988C86.4842 20.5384 86.7659 20.2953 86.8423 19.8078L88.4156 9.76971C88.4408 9.61571 88.4026 9.47499 88.3004 9.34662C88.1976 9.21872 88.07 9.15442 87.9166 9.15442ZM82.91 16.7313C82.2577 17.3724 81.4711 17.6927 80.5504 17.6927C79.8083 17.6927 79.2078 17.4879 78.7472 17.0774C78.2865 16.6681 78.0564 16.1039 78.0564 15.3852C78.0564 14.4372 78.3761 13.6353 79.0158 12.9816C79.6544 12.3277 80.448 12.0009 81.3944 12.0009C82.11 12.0009 82.7047 12.2124 83.1784 12.6352C83.6511 13.0584 83.8884 13.6418 83.8884 14.3855C83.8882 15.3085 83.5621 16.0907 82.91 16.7313Z" fill="white"/>
<path d="M44.3327 9.15442H41.4169C41.0583 9.15442 40.8413 9.57762 40.7645 10.4239C40.0739 9.39858 38.8589 8.88522 37.1197 8.88522C35.2781 8.88522 33.7113 9.57762 32.4198 10.9622C31.128 12.3468 30.4824 13.9754 30.4824 15.8469C30.4824 17.3599 30.9237 18.5649 31.8062 19.4619C32.6886 20.3599 33.8712 20.8081 35.3549 20.8081C36.0707 20.8081 36.8129 20.6539 37.5801 20.3465C38.3474 20.0389 38.9613 19.6289 39.4217 19.1158C39.319 19.4232 39.2682 19.6926 39.2682 19.9231C39.2682 20.3338 39.4343 20.5384 39.7669 20.5384H42.4141C42.8997 20.5384 43.1814 20.2953 43.2582 19.8078L44.8311 9.76971C44.8563 9.61571 44.8181 9.47499 44.7161 9.34662C44.6137 9.21872 44.486 9.15442 44.3327 9.15442ZM39.326 16.7504C38.6736 17.3793 37.874 17.6927 36.9282 17.6927C36.186 17.6927 35.5913 17.4879 35.1441 17.0774C34.6962 16.6681 34.4726 16.1039 34.4726 15.3852C34.4726 14.4372 34.7921 13.6353 35.4318 12.9816C36.0708 12.3277 36.8638 12.0008 37.8105 12.0008C38.5263 12.0008 39.121 12.2124 39.5946 12.6352C40.0675 13.0584 40.3043 13.6418 40.3043 14.3855C40.3042 15.3342 39.9782 16.1229 39.326 16.7504Z" fill="white"/>
<path d="M73.5102 4.51921C72.5254 3.84044 71.2405 3.50024 69.6546 3.50024H63.5543C63.0426 3.50024 62.7611 3.74393 62.7103 4.23084L60.2165 19.9222C60.1906 20.0763 60.229 20.2172 60.3316 20.3454C60.4331 20.4737 60.5616 20.5376 60.7151 20.5376H63.8609C64.1678 20.5376 64.3723 20.3711 64.4749 20.0377L65.1655 15.5766C65.191 15.3716 65.2805 15.2049 65.4342 15.0765C65.5877 14.9484 65.7793 14.8646 66.0097 14.8262C66.2397 14.7882 66.4568 14.7689 66.6619 14.7689C66.8664 14.7689 67.1091 14.7819 67.3907 14.8074C67.6719 14.8329 67.8516 14.8455 67.9278 14.8455C70.1277 14.8455 71.8538 14.2242 73.1073 12.9803C74.3606 11.737 74.9872 10.0129 74.9872 7.80735C74.9873 6.29465 74.4947 5.19856 73.5102 4.51885V4.51921ZM69.5779 10.8459C69.0151 11.2305 68.1709 11.4227 67.0458 11.4227L65.8179 11.4612L66.4701 7.34583C66.5208 7.06417 66.6871 6.92286 66.9688 6.92286H67.6591C68.2219 6.92286 68.6694 6.94861 69.0024 6.99975C69.3343 7.05124 69.6546 7.21123 69.9614 7.48031C70.2686 7.74963 70.4218 8.14086 70.4218 8.6534C70.4218 9.73068 70.1402 10.4611 69.5779 10.8459Z" fill="white"/>
</svg>
