<svg width="48" height="48" viewBox="0 0 48 48" fill="none" xmlns="http://www.w3.org/2000/svg">
<rect width="48" height="48" rx="24" fill="#437EF7"/>
<path d="M32.0001 20.0002C34.9456 20.0002 37.3334 17.6123 37.3334 14.6668C37.3334 11.7213 34.9456 9.3335 32.0001 9.3335C29.0546 9.3335 26.6667 11.7213 26.6667 14.6668C26.6667 15.1698 26.7364 15.6565 26.8665 16.1178L19.7888 20.2465C18.8223 19.271 17.4817 18.6668 16.0001 18.6668C13.0546 18.6668 10.6667 21.0546 10.6667 24.0002C10.6667 26.9457 13.0546 29.3335 16.0001 29.3335C17.4817 29.3335 18.8223 28.7293 19.7888 27.7538L26.8665 31.8825C26.7364 32.3438 26.6667 32.8305 26.6667 33.3335C26.6667 36.279 29.0546 38.6668 32.0001 38.6668C34.9456 38.6668 37.3334 36.279 37.3334 33.3335C37.3334 30.388 34.9456 28.0002 32.0001 28.0002C30.5184 28.0002 29.1779 28.6044 28.2114 29.5798L21.1337 25.4511C21.2638 24.9898 21.3334 24.5031 21.3334 24.0002C21.3334 23.4972 21.2638 23.0105 21.1337 22.5492L28.2114 18.4205C29.1779 19.396 30.5184 20.0002 32.0001 20.0002Z" fill="white"/>
</svg>
